<svg width="294" height="177" viewBox="0 0 294 177" fill="none" xmlns="http://www.w3.org/2000/svg">
<path d="M82.807 64.1444C82.7095 67.0774 83.0997 70.0104 83.8802 72.8456C84.7583 75.2897 85.8315 77.6361 87.0022 79.8847C87.3925 80.569 87.6852 81.3512 87.6852 82.1333C87.5876 83.3065 86.9047 84.4797 85.8315 85.0663L79.6851 89.1724C78.9046 89.6612 78.0265 90.0523 77.1484 90.0523C76.0753 89.9545 75.0021 89.4657 74.2216 88.6836C72.9533 87.3149 71.685 85.7506 70.7093 84.0886C69.7337 82.4266 68.7581 80.569 67.6849 78.3204C60.075 87.3149 50.5139 91.8121 39.0016 91.8121C30.8064 91.8121 24.2697 89.4657 19.4891 84.773C14.7086 80.0802 12.2695 73.8232 12.2695 66.002C12.2695 57.6919 15.1964 50.9461 21.1477 45.8623C27.099 40.7784 35.0015 38.2365 45.0505 38.2365C48.4651 38.2365 51.9774 38.5298 55.392 39.0187C59.0019 39.5075 62.7092 40.2896 66.6117 41.1695V34.0326C66.6117 26.6024 65.0507 21.4209 62.0263 18.3901C59.0019 15.3594 53.6359 13.8929 46.1236 13.8929C42.6114 13.8929 39.0016 14.284 35.5869 15.1639C31.9771 16.0437 28.4649 17.1192 25.0502 18.4879C23.977 18.9767 22.8063 19.3678 21.6355 19.7588C21.1477 19.9544 20.5623 20.0521 20.0745 20.0521C18.7086 20.0521 18.0257 19.0745 18.0257 17.0214V12.2309C17.9281 11.0577 18.2208 9.88451 18.7086 8.80909C19.4891 7.9292 20.3672 7.24484 21.4404 6.75601C25.3429 4.8007 29.4405 3.33421 33.7332 2.35656C38.7089 1.0856 43.8797 0.499011 48.9529 0.499011C60.5629 0.499011 69.0508 3.13868 74.5143 8.41803C79.9777 13.6974 82.6119 21.7141 82.6119 32.4684V64.1444H82.807ZM43.1968 79.0048C46.6114 79.0048 50.0261 78.4182 53.2457 77.245C56.8555 75.9741 59.9775 73.8232 62.5141 70.988C64.0751 69.2282 65.2458 67.0774 65.8312 64.731C66.5142 61.9936 66.8068 59.0606 66.8068 56.2254V52.1193C63.88 51.4349 60.8555 50.8483 57.8311 50.4572C54.8067 50.0662 51.6847 49.8706 48.6603 49.8706C42.1236 49.8706 37.343 51.1416 34.1235 53.7813C30.9039 56.4209 29.3429 60.136 29.3429 65.0243C29.3429 69.6193 30.5137 73.0411 32.9527 75.3875C35.3918 77.7338 38.7089 79.0048 43.1968 79.0048V79.0048ZM121.539 89.5635C120.271 89.6613 118.905 89.368 117.832 88.5858C116.856 87.5104 116.076 86.2395 115.783 84.773L92.856 9.20015C92.3681 7.9292 92.0755 6.65824 91.9779 5.28953C91.8803 4.11634 92.6608 3.04092 93.8316 2.84539H103.978C105.832 2.84539 107.1 3.13868 107.783 3.82304C108.466 4.5074 109.149 5.77835 109.734 7.6359L126.027 72.3567L141.247 7.6359C141.735 5.68059 142.32 4.40964 143.101 3.82304C144.271 3.13868 145.637 2.74762 147.003 2.84539H154.808C156.662 2.84539 157.93 3.13868 158.71 3.82304C159.686 4.89846 160.369 6.16942 160.564 7.6359L175.979 73.1389L192.857 7.6359C193.15 6.16942 193.833 4.89846 194.809 3.82304C195.979 3.13868 197.248 2.74762 198.613 2.84539H207.687C208.857 2.64985 209.931 3.52974 210.126 4.70293V5.28953C210.126 5.77835 210.028 6.36495 209.931 6.85378C209.736 7.73367 209.54 8.51579 209.248 9.29792L185.735 84.8707C185.15 86.826 184.467 88.097 183.686 88.6836C182.613 89.368 181.247 89.759 179.979 89.6612H171.589C169.735 89.6612 168.467 89.368 167.686 88.6836C166.711 87.6082 166.028 86.2395 165.833 84.773L150.71 21.7141L135.686 84.6752C135.491 86.1417 134.808 87.5104 133.832 88.5858C132.661 89.368 131.295 89.6613 129.93 89.5635H121.539V89.5635ZM246.907 92.2032C241.834 92.2032 236.76 91.6166 231.882 90.4434C227.004 89.2702 223.199 87.9992 220.663 86.5327C219.394 85.9462 218.321 84.9685 217.638 83.7953C217.248 82.9154 217.053 82.0355 217.053 81.0579V76.0718C217.053 74.0188 217.833 73.0411 219.297 73.0411C219.882 73.0411 220.467 73.1389 221.053 73.3344C221.638 73.5299 222.516 73.921 223.492 74.312C226.907 75.8763 230.516 76.9517 234.224 77.7338C238.029 78.516 241.931 78.907 245.834 78.907C251.98 78.907 256.761 77.8316 260.078 75.6808C263.297 73.7255 265.248 70.2059 265.151 66.393C265.248 63.8511 264.273 61.407 262.517 59.5494C260.761 57.6919 257.443 56.0299 252.663 54.4656L238.516 50.0662C231.394 47.8176 226.126 44.4935 222.906 40.0941C219.784 35.9879 218.028 31.0996 218.028 25.9181C217.931 22.1052 218.809 18.3901 220.663 15.0661C222.419 11.9376 224.76 9.20015 227.687 7.04931C230.711 4.70293 234.126 3.04092 237.834 1.9655C241.834 0.792308 245.931 0.205714 250.126 0.30348C252.273 0.30348 254.517 0.401245 256.663 0.694542C258.907 0.987839 260.956 1.3789 263.005 1.76996C265.053 2.16103 266.809 2.74762 268.566 3.33421C270.029 3.82304 271.395 4.40964 272.663 5.09399C273.834 5.68059 274.81 6.46271 275.59 7.53814C276.273 8.51579 276.566 9.59121 276.468 10.7644V15.3594C276.468 17.4125 275.688 18.4879 274.224 18.4879C272.956 18.2924 271.688 17.9013 270.517 17.3147C264.663 14.675 258.224 13.4041 251.785 13.5018C246.224 13.5018 241.834 14.3817 238.809 16.2393C235.785 18.0968 234.224 20.932 234.224 24.9404C234.126 27.5801 235.199 30.122 237.151 31.8818C239.102 33.7393 242.712 35.5969 247.882 37.2589L261.736 41.6583C268.761 43.9069 273.834 47.0354 276.858 51.0438C279.883 54.9545 281.444 59.8427 281.346 64.731C281.444 68.6416 280.566 72.5523 278.81 76.0718C277.054 79.3959 274.614 82.3288 271.688 84.6752C268.468 87.2171 264.761 89.0747 260.858 90.1501C256.37 91.5188 251.687 92.2032 246.907 92.2032V92.2032Z" fill="#252F3E"/>
<path d="M265.346 139.715C233.248 163.472 186.613 176.084 146.515 176.084C90.3194 176.084 39.6846 155.26 1.44017 120.651C-1.58426 117.914 1.14748 114.199 4.75729 116.349C46.1237 140.4 97.1487 154.967 149.93 154.967C187.979 154.771 225.638 147.048 260.663 132.285C266.029 129.841 270.614 135.805 265.346 139.715Z" fill="#FF9900"/>
<path d="M278.713 124.465C274.615 119.186 251.59 121.923 241.151 123.194C238.029 123.585 237.541 120.848 240.371 118.795C258.712 105.89 288.859 109.605 292.371 113.907C295.884 118.208 291.396 148.516 274.225 162.985C271.591 165.234 269.054 164.06 270.225 161.127C274.127 151.449 282.81 129.647 278.713 124.465V124.465Z" fill="#FF9900"/>
</svg>
