<svg width="204" height="287" viewBox="0 0 204 287" fill="none" xmlns="http://www.w3.org/2000/svg">
<path d="M159.215 10.606H142.372L159.892 29.6281V38.6747H123.797V28.0802H141.317L123.797 9.05812V0H159.227L159.215 10.606ZM116.631 10.606H99.7642L117.307 29.6281V38.6747H81.2008V28.0802H98.7208L81.2008 9.05812V0H116.631V10.606ZM74.4588 11.0417H56.2852V27.6445H74.4588V38.6862H43.3516V0H74.4588V11.0417Z" fill="#131313"/>
<path d="M18.572 263.614L0.0888672 56.3438H203.151L184.645 263.58L101.494 286.626L18.572 263.614Z" fill="#1572B6"/>
<path d="M101.609 269.013L168.8 250.381L184.6 73.2891H101.609V269.013Z" fill="#33A9DC"/>
<path d="M101.609 148.378H135.251L137.567 122.35H101.609V96.9414H165.36L164.753 103.764L158.504 173.821H101.609V148.378Z" fill="white"/>
<path d="M101.765 214.404H101.651L73.3413 206.756L71.5296 186.484H46.0293L49.5952 226.397L101.674 240.89H101.823V214.404H101.765Z" fill="#EBEBEB"/>
<path d="M133.113 172.711L130.052 206.73L101.696 214.378V240.864L153.809 226.417L154.188 222.118L158.613 172.699H133.113V172.711Z" fill="white"/>
<path d="M101.717 96.9414V122.361H40.3284L39.8009 116.651L38.6429 103.764L38.0352 96.9414H101.717ZM101.625 148.378V173.798H73.637L73.144 168.088L71.9859 155.2L71.3782 148.378H101.614H101.625Z" fill="#EBEBEB"/>
</svg>
