<svg width="279" height="280" viewBox="0 0 279 280" fill="none" xmlns="http://www.w3.org/2000/svg">
<g clip-path="url(#clip0_689_3876)">
<path d="M273.609 127.405L152.048 5.84471C145.052 -1.15136 133.687 -1.15136 126.691 5.84471L101.457 31.0795L133.474 63.0964C140.928 60.5913 149.452 62.2716 155.378 68.1984C161.336 74.1557 163.016 82.771 160.45 90.2559L191.306 121.112C198.76 118.546 207.375 120.195 213.363 126.183C221.704 134.524 221.704 148.027 213.363 156.367C205.023 164.708 191.52 164.708 183.179 156.367C176.916 150.104 175.358 140.878 178.536 133.149L149.757 104.37V180.105C151.804 181.113 153.698 182.457 155.409 184.138C163.749 192.478 163.749 205.981 155.409 214.322C147.069 222.662 133.565 222.662 125.225 214.322C116.885 205.981 116.885 192.478 125.225 184.138C127.272 182.091 129.655 180.533 132.221 179.494V103.057C129.685 102.018 127.302 100.46 125.225 98.4129C118.901 92.1195 117.404 82.8321 120.642 75.0722L89.0225 43.483L5.68065 126.855C-1.31542 133.852 -1.31542 145.216 5.68065 152.212L127.241 273.773C134.237 280.769 145.602 280.769 152.598 273.773L273.609 152.762C280.605 145.766 280.605 134.401 273.609 127.405Z" fill="#E84427"/>
</g>
<defs>
<clipPath id="clip0_689_3876">
<rect width="278.438" height="278.438" fill="white" transform="translate(0.418945 0.585938)"/>
</clipPath>
</defs>
</svg>
