<svg width="271" height="264" viewBox="0 0 271 264" fill="none" xmlns="http://www.w3.org/2000/svg">
<path fill-rule="evenodd" clip-rule="evenodd" d="M135.49 0.398438C60.7844 0.398438 0.394043 60.7888 0.394043 135.494C0.394043 195.213 39.0886 245.762 92.769 263.656C99.479 264.998 101.939 260.748 101.939 257.169C101.939 254.038 101.716 243.302 101.716 232.119C64.1394 240.171 56.3111 216.014 56.3111 216.014C50.272 200.358 41.3253 196.332 41.3253 196.332C29.0236 188.056 42.22 188.056 42.22 188.056C55.8637 188.951 63.0211 201.923 63.0211 201.923C75.0992 222.501 94.5583 216.685 102.387 213.107C103.505 204.384 107.084 198.345 110.886 194.99C80.9146 191.858 49.3774 180.228 49.3774 128.337C49.3774 113.574 54.7454 101.496 63.2448 92.1023C61.9028 88.7473 57.2057 74.8799 64.5868 56.3155C64.5868 56.3155 75.9939 52.7368 101.716 70.1829C112.452 67.2752 124.082 65.7095 135.49 65.7095C146.897 65.7095 158.527 67.2752 169.263 70.1829C194.985 52.7368 206.392 56.3155 206.392 56.3155C213.773 74.8799 209.076 88.7473 207.734 92.1023C216.457 101.496 221.602 113.574 221.602 128.337C221.602 180.228 190.065 191.635 159.869 194.99C164.79 199.239 169.04 207.291 169.04 220.04C169.04 238.158 168.816 252.696 168.816 257.169C168.816 260.748 171.276 264.998 177.986 263.656C231.667 245.762 270.361 195.213 270.361 135.494C270.585 60.7888 209.971 0.398438 135.49 0.398438Z" fill="white"/>
<path d="M51.616 194.321C51.3922 194.993 50.2731 195.217 49.3778 194.769C48.4825 194.321 47.8111 193.426 48.2587 192.755C48.4825 192.083 49.6016 191.859 50.4969 192.307C51.3922 192.755 51.8398 193.65 51.616 194.321Z" fill="white"/>
<path d="M56.9848 200.361C56.3134 201.033 54.9705 200.585 54.299 199.69C53.4037 198.795 53.1799 197.452 53.8514 196.78C54.5228 196.109 55.6419 196.556 56.5372 197.452C57.4325 198.571 57.6563 199.914 56.9848 200.361Z" fill="white"/>
<path d="M62.3531 208.188C61.4578 208.86 60.1149 208.188 59.4434 207.069C58.5482 205.95 58.5482 204.384 59.4434 203.936C60.3387 203.264 61.6816 203.936 62.3531 205.055C63.2484 206.174 63.2484 207.517 62.3531 208.188Z" fill="white"/>
<path d="M69.7347 215.795C69.0632 216.69 67.4965 216.466 66.1536 215.347C65.0345 214.228 64.5868 212.661 65.4821 211.99C66.1536 211.095 67.7203 211.318 69.0632 212.438C70.1823 213.333 70.4062 214.9 69.7347 215.795Z" fill="white"/>
<path d="M79.7999 220.041C79.5761 221.16 78.0094 221.608 76.4426 221.16C74.8759 220.712 73.9806 219.37 74.2044 218.474C74.4283 217.355 75.995 216.907 77.5617 217.355C79.1285 217.803 80.0238 218.922 79.7999 220.041Z" fill="white"/>
<path d="M90.7593 220.936C90.7593 222.055 89.4163 222.951 87.8496 222.951C86.2829 222.951 84.9399 222.055 84.9399 220.936C84.9399 219.817 86.2829 218.922 87.8496 218.922C89.4163 218.922 90.7593 219.817 90.7593 220.936Z" fill="white"/>
<path d="M101.048 219.149C101.272 220.268 100.153 221.387 98.5863 221.611C97.0196 221.835 95.6767 221.163 95.4528 220.044C95.229 218.925 96.3481 217.806 97.9148 217.582C99.4816 217.358 100.825 218.03 101.048 219.149Z" fill="white"/>
</svg>
