<svg width="277" height="223" viewBox="0 0 277 223" fill="none" xmlns="http://www.w3.org/2000/svg">
<path d="M176.057 61.7257L184.918 61.8807L208.993 37.8062L210.155 27.6047C191.022 10.5868 165.848 0.230469 138.295 0.230469C88.4111 0.230469 46.304 34.1733 33.833 80.1534C36.4666 78.3176 42.0825 79.6887 42.0825 79.6887L90.2005 71.7723C90.2005 71.7723 92.6792 67.6669 93.9185 67.9225C104.247 56.6233 118.498 49.6907 133.763 48.5391C149.028 47.3876 164.158 52.1039 176.065 61.7257H176.057Z" fill="#EA4335"/>
<path d="M242.904 80.2393C237.373 59.8882 226.023 41.5933 210.247 27.5977L176.149 61.6954C183.147 67.3195 188.794 74.4416 192.675 82.5371C196.556 90.6327 198.572 99.4956 198.574 108.473V114.492C215.166 114.492 228.628 127.993 228.628 144.546C228.628 161.099 215.127 174.601 198.574 174.601H138.45L132.431 180.643V216.723L138.45 222.711H198.574C219.281 222.656 239.122 214.402 253.759 199.755C268.396 185.108 276.636 165.261 276.677 144.554C276.646 117.939 263.23 94.3602 242.827 80.2393H242.904Z" fill="#4285F4"/>
<path d="M78.1784 222.763H138.287V174.645H78.1784C73.9098 174.647 69.6909 173.73 65.808 171.957L57.1325 174.614L33.0581 198.688L30.9512 206.822C44.4962 217.222 61.1091 222.834 78.1861 222.778L78.1784 222.763Z" fill="#34A853"/>
<path d="M78.1781 66.3984C57.4515 66.4312 37.5831 74.6794 22.9271 89.3353C8.27117 103.991 0.0230103 123.86 -0.00976562 144.586C-0.00988476 156.655 2.78792 168.56 8.16389 179.366C13.5399 190.172 21.3477 199.584 30.9741 206.864L65.831 172.007C60.5511 169.631 56.0697 165.781 52.9256 160.92C49.7816 156.058 48.1088 150.392 48.1082 144.602C48.1082 128.01 61.6094 114.547 78.1626 114.547C83.9502 114.558 89.6125 116.234 94.4724 119.377C99.3324 122.52 103.184 126.996 105.568 132.27L140.425 97.4133C126.126 78.5906 103.554 66.4294 78.1471 66.4294L78.1781 66.3984Z" fill="#FBBC05"/>
</svg>
