<svg width="210" height="304" viewBox="0 0 210 304" fill="none" xmlns="http://www.w3.org/2000/svg">
<path fill-rule="evenodd" clip-rule="evenodd" d="M104.258 164.942L98.2993 155.668C96.3803 152.648 94.3603 149.197 92.5422 145.854C89.2092 139.599 85.1692 131.726 83.3512 123.853C79.9171 109.402 88.1992 100.451 95.5723 90.9601C96.6833 89.5581 97.9963 88.1561 99.2083 86.8619C106.884 78.2342 117.489 67.881 125.67 59.2533C134.054 50.5178 139.003 40.9195 140.013 26.7917C140.518 19.4581 139.205 3.60478 134.357 0.800781C135.771 11.9089 136.175 19.3503 131.933 30.4584C127.084 43.4 119.206 51.057 110.015 58.7141C102.44 64.9692 90.2192 76.1852 83.7552 82.7638C79.6141 86.9698 72.4431 94.6268 69.5141 101.96C65.171 112.961 69.5141 120.078 74.1601 127.736C76.3821 131.402 78.6041 134.53 81.0282 137.765C83.7552 141.54 86.2802 144.236 88.4012 147.148C90.7242 150.275 93.5522 153.187 96.1783 156.207C97.6933 158.148 102.642 163.756 104.258 164.942Z" fill="#E30F13"/>
<path fill-rule="evenodd" clip-rule="evenodd" d="M193.124 259.848C196.053 264.917 193.124 267.074 189.185 269.015C171.308 277.966 111.01 279.584 92.123 279.907C72.9329 280.231 53.5407 279.368 34.9566 275.917C31.9266 275.378 18.6955 273.113 18.0895 269.339C17.6855 266.966 20.0085 265.24 21.2205 264.378C25.4625 261.574 33.3406 259.632 38.6936 258.554C40.2086 258.23 44.0467 257.799 45.1577 257.368C36.1686 255.966 7.68639 261.142 1.42434 270.525C-2.51469 276.456 4.05036 279.26 8.49439 280.77C24.9575 286.486 59.0958 287.672 77.1749 287.888C104.142 288.319 168.985 287.996 192.72 270.525C194.134 269.554 196.861 267.397 197.063 265.348C197.467 262.868 194.639 260.495 193.124 259.848Z" fill="#0089C8"/>
<path fill-rule="evenodd" clip-rule="evenodd" d="M115.438 176.699C118.266 175.62 126.75 168.287 129.073 165.807C132.103 162.463 137.153 156.424 137.557 149.306C137.961 142.835 133.82 134.531 131.295 130.433C123.316 117.491 116.852 110.05 127.76 95.5987C131.396 90.8535 135.335 87.0789 139.88 82.9807C145.435 78.1277 154.424 71.4412 160.888 67.1274L168.261 62.0586C164.322 62.5978 154.02 67.0195 149.98 68.6372C144.526 70.7941 138.264 74.1374 133.416 77.157C117.054 87.2946 100.894 103.148 107.56 124.933C112.004 139.708 125.033 148.551 124.023 159.659C123.316 166.454 117.256 173.248 115.438 176.699Z" fill="#E30F13"/>
<path fill-rule="evenodd" clip-rule="evenodd" d="M149.61 249.062C144.56 247.013 140.823 244.641 136.278 241.837C133.652 240.219 134.662 240.327 131.329 241.19C117.694 244.748 95.5749 244.856 81.3338 244.317C77.6978 244.209 67.2947 243.886 65.1737 240.111C63.8607 237.738 65.6787 236.121 66.3857 234.719C56.9926 236.768 47.4986 245.072 60.5277 251.974C75.1728 259.739 106.079 259.847 122.138 256.827C126.683 255.964 147.489 250.896 149.61 249.062Z" fill="#0089C8"/>
<path fill-rule="evenodd" clip-rule="evenodd" d="M153.935 216.383C150.097 215.304 146.562 212.716 144.239 210.559C142.118 208.618 142.825 209.157 138.381 209.912C122.322 212.716 74.5482 217.785 60.9131 211.745C59.0951 210.99 57.075 209.804 56.974 207.539C56.873 204.843 58.893 203.441 59.8021 202.039C48.793 203.441 38.2889 214.765 52.934 220.265C69.4981 226.304 105.353 226.52 123.029 224.147C128.887 223.285 149.491 218.971 153.935 216.383Z" fill="#0089C8"/>
<path fill-rule="evenodd" clip-rule="evenodd" d="M165.065 177.88C162.944 177.988 160.216 178.635 158.095 179.066C155.671 179.498 153.348 179.821 150.823 180.145C136.077 182.302 119.816 184.135 105.07 184.998C93.556 185.753 50.2267 187.263 43.7626 180.792C43.2576 177.88 46.3886 176.047 48.3077 174.968C55.7817 170.762 63.6598 169.252 70.9318 166.88C60.8317 165.909 35.3796 173.674 26.1885 179.821C16.2904 186.4 32.8545 189.096 39.0156 189.959C75.2749 195.351 109.211 192.439 145.066 187.047C150.924 186.184 152.136 186.508 156.176 183.811C159.004 181.87 162.54 179.929 165.065 177.88Z" fill="#0089C8"/>
<path fill-rule="evenodd" clip-rule="evenodd" d="M39.5908 294.578C49.6909 299.107 71.8101 301.911 83.2231 302.882C99.2823 304.284 116.957 303.96 133.118 302.774C153.924 301.156 178.669 298.676 196.95 288.754C201.293 286.382 209.171 280.666 209.878 275.273C208.565 275.921 207.454 277.215 206.242 278.077C173.922 301.804 100.09 299.539 61.912 296.627L39.5908 294.578Z" fill="#0089C8"/>
<path fill-rule="evenodd" clip-rule="evenodd" d="M172.308 168.611C180.186 165.915 189.276 167.749 194.225 172.494C199.679 177.67 199.679 187.484 195.841 195.034C190.589 205.171 179.681 214.122 170.49 220.27C168.975 221.348 167.46 222.103 166.046 223.181C171.904 222.534 185.842 215.848 191.094 212.289C197.861 207.867 205.335 201.289 208.466 192.877C212.91 180.906 206.446 171.847 199.578 167.425C195.639 164.945 190.892 163.435 185.337 163.758C181.095 163.974 174.227 165.807 172.308 168.611Z" fill="#0089C8"/>
</svg>
