<svg width="273" height="274" viewBox="0 0 273 274" fill="none" xmlns="http://www.w3.org/2000/svg">
<g clip-path="url(#clip0_689_3837)">
<path d="M-0.00976562 0.359375H272.691V273.061H-0.00976562V0.359375Z" fill="#F7DF1E"/>
<path d="M71.6978 228.247L92.5658 215.613C96.5924 222.75 100.257 228.79 109.034 228.79C117.46 228.79 122.765 225.498 122.765 212.683V125.547H148.395V213.046C148.395 239.591 132.832 251.671 110.132 251.671C89.6364 251.682 77.7377 241.061 71.6978 228.247Z" fill="black"/>
<path d="M162.316 225.497L183.184 213.417C188.681 222.386 195.818 228.98 208.441 228.98C219.062 228.98 225.826 223.675 225.826 216.346C225.826 207.558 218.87 204.448 207.152 199.324L200.75 196.575C182.258 188.703 169.997 178.818 169.997 157.95C169.997 138.733 184.644 124.086 207.525 124.086C223.813 124.086 235.53 129.764 243.956 144.592L224.004 157.407C219.616 149.534 214.854 146.424 207.536 146.424C200.026 146.424 195.275 151.186 195.275 157.407C195.275 165.098 200.037 168.208 211.019 172.97L217.421 175.718C239.205 185.05 251.466 194.573 251.466 215.984C251.466 239.046 233.347 251.68 208.995 251.68C185.198 251.68 169.826 240.325 162.316 225.497Z" fill="black"/>
</g>
<defs>
<clipPath id="clip0_689_3837">
<rect width="272.702" height="272.702" fill="white" transform="translate(-0.00976562 0.359375)"/>
</clipPath>
</defs>
</svg>
