<svg width="274" height="304" viewBox="0 0 274 304" fill="none" xmlns="http://www.w3.org/2000/svg">
<path d="M137.048 303.165C132.809 303.165 128.857 302.052 125.192 300.098L87.6423 278.102C81.9966 275.035 84.8194 273.922 86.5132 273.365C94.1403 270.854 95.5464 270.298 103.451 265.844C104.303 265.287 105.432 265.571 106.273 266.127L135.067 283.113C136.196 283.669 137.613 283.669 138.454 283.113L251.093 218.806C252.222 218.25 252.787 217.136 252.787 215.739V87.4311C252.787 86.0341 252.222 84.9206 251.093 84.3639L138.465 20.3412C137.336 19.7845 135.919 19.7845 135.078 20.3412L22.4389 84.3744C21.3097 84.9311 20.7451 86.3282 20.7451 87.4416V215.771C20.7451 216.884 21.3097 218.281 22.4389 218.838L53.2137 236.38C69.8741 244.731 80.3135 234.983 80.3135 225.245V98.5655C80.3135 96.8954 81.7302 95.2252 83.7009 95.2252H98.103C99.7967 95.2252 101.49 96.6222 101.49 98.5655V225.224C101.49 247.22 89.3467 260.025 68.1804 260.025C61.6824 260.025 56.6012 260.025 42.2098 253.06L12.5641 236.359C5.21389 232.189 0.697266 224.395 0.697266 216.044V87.7147C0.697266 79.364 5.21389 71.5699 12.5534 67.3892L125.192 3.08293C132.255 -0.814102 141.853 -0.814102 148.904 3.08293L261.543 67.3892C268.883 71.5699 273.399 79.364 273.399 87.7147V216.044C273.399 224.395 268.883 232.189 261.543 236.369L148.904 300.676C145.24 302.335 141 303.165 137.048 303.165ZM171.775 214.93C122.369 214.93 112.207 192.662 112.207 173.733C112.207 172.063 113.624 170.393 115.594 170.393H130.273C131.967 170.393 133.384 171.506 133.384 173.176C135.642 187.935 142.14 195.172 172.063 195.172C195.775 195.172 205.937 189.878 205.937 177.357C205.937 170.12 203.115 164.826 166.129 161.212C135.355 158.145 116.159 151.464 116.159 127.252C116.159 104.7 135.355 91.3387 167.535 91.3387C203.669 91.3387 221.458 103.586 223.716 130.309C223.716 131.149 223.429 131.979 222.864 132.819C222.3 133.376 221.447 133.933 220.606 133.933H205.927C204.51 133.933 203.104 132.819 202.816 131.422C199.429 116.107 190.673 111.097 167.525 111.097C141.554 111.097 138.444 120.004 138.444 126.685C138.444 134.763 142.119 137.263 177.123 141.716C211.85 146.17 228.222 152.578 228.222 176.517C227.945 201.002 207.621 214.93 171.775 214.93Z" fill="white"/>
</svg>
