<svg width="258" height="258" viewBox="0 0 258 258" fill="none" xmlns="http://www.w3.org/2000/svg">
<path d="M127.056 0.589844C62.1247 0.589844 66.1789 28.685 66.1789 28.685L66.251 57.7925H128.213V66.5314H41.6405C41.6405 66.5314 0.0913086 61.8297 0.0913086 127.199C0.0913086 192.57 36.3565 190.251 36.3565 190.251H57.9994V159.917C57.9994 159.917 56.8327 123.732 93.6858 123.732H155.141C155.141 123.732 189.669 124.289 189.669 90.4365V34.464C189.669 34.464 194.913 0.589844 127.056 0.589844ZM92.8895 20.164C94.3538 20.1627 95.8038 20.4495 97.1569 21.008C98.5099 21.5665 99.7392 22.3857 100.775 23.4187C101.81 24.4518 102.631 25.6784 103.191 27.0284C103.75 28.3784 104.038 29.8253 104.037 31.2862C104.038 32.7472 103.75 34.194 103.191 35.544C102.631 36.894 101.81 38.1207 100.775 39.1537C99.7392 40.1868 98.5099 41.006 97.1569 41.5644C95.8038 42.1229 94.3538 42.4097 92.8895 42.4084C91.4253 42.4097 89.9752 42.1229 88.6222 41.5644C87.2692 41.006 86.0399 40.1868 85.0045 39.1537C83.9692 38.1207 83.1481 36.894 82.5884 35.544C82.0287 34.194 81.7413 32.7472 81.7426 31.2862C81.7413 29.8253 82.0287 28.3784 82.5884 27.0284C83.1481 25.6784 83.9692 24.4518 85.0045 23.4187C86.0399 22.3857 87.2692 21.5665 88.6222 21.008C89.9752 20.4495 91.4253 20.1627 92.8895 20.164V20.164Z" fill="url(#paint0_linear_689_4052)"/>
<path d="M130.54 258C195.471 258 191.416 229.904 191.416 229.904L191.344 200.798H129.381V192.059H215.954C215.954 192.059 257.503 196.761 257.503 131.39C257.503 66.0199 221.238 68.3383 221.238 68.3383H199.595V98.6719C199.595 98.6719 200.762 134.856 163.909 134.856H102.453C102.453 134.856 67.9255 134.3 67.9255 168.153V224.127C67.9255 224.127 62.6825 258 130.539 258H130.54ZM164.706 238.427C163.242 238.429 161.791 238.142 160.438 237.583C159.085 237.025 157.856 236.206 156.821 235.173C155.785 234.14 154.964 232.913 154.405 231.563C153.845 230.213 153.558 228.766 153.559 227.305C153.557 225.844 153.845 224.397 154.404 223.047C154.964 221.697 155.785 220.47 156.82 219.437C157.856 218.404 159.085 217.585 160.438 217.026C161.791 216.468 163.242 216.181 164.706 216.182C166.17 216.181 167.62 216.468 168.973 217.026C170.326 217.585 171.555 218.404 172.591 219.437C173.626 220.47 174.447 221.696 175.007 223.046C175.567 224.396 175.854 225.843 175.853 227.304C175.854 228.765 175.567 230.212 175.007 231.562C174.447 232.912 173.626 234.139 172.591 235.172C171.555 236.205 170.326 237.024 168.973 237.582C167.62 238.141 166.17 238.428 164.706 238.426V238.427Z" fill="url(#paint1_linear_689_4052)"/>
<defs>
<linearGradient id="paint0_linear_689_4052" x1="24.6708" y1="23.4244" x2="151.144" y2="148.915" gradientUnits="userSpaceOnUse">
<stop stop-color="#387EB8"/>
<stop offset="1" stop-color="#366994"/>
</linearGradient>
<linearGradient id="paint1_linear_689_4052" x1="104.112" y1="107.361" x2="239.943" y2="236.053" gradientUnits="userSpaceOnUse">
<stop stop-color="#FFE052"/>
<stop offset="1" stop-color="#FFC331"/>
</linearGradient>
</defs>
</svg>
